<svg xmlns="http://www.w3.org/2000/svg" xmlns:xlink="http://www.w3.org/1999/xlink" width="500" zoomAndPan="magnify" viewBox="0 0 375 131.249995" height="175" preserveAspectRatio="xMidYMid meet" version="1.2"><defs/><g id="63d78c2e3e"><g style="fill:#d8bd2a;fill-opacity:0.4;"><g transform="translate(4.726428, 53.997992)"><path style="stroke:none" d="M 22.765625 0.890625 C 18.285156 0.890625 14.410156 0.285156 11.140625 -0.921875 C 7.867188 -2.140625 5.351562 -3.9375 3.59375 -6.3125 C 1.84375 -8.695312 0.96875 -11.601562 0.96875 -15.03125 C 0.96875 -18.457031 1.84375 -21.34375 3.59375 -23.6875 C 5.351562 -26.039062 7.867188 -27.828125 11.140625 -29.046875 C 14.410156 -30.265625 18.285156 -30.875 22.765625 -30.875 C 27.003906 -30.875 30.703125 -30.316406 33.859375 -29.203125 C 37.023438 -28.097656 39.503906 -26.5 41.296875 -24.40625 C 43.097656 -22.3125 44.082031 -19.78125 44.25 -16.8125 L 30.34375 -16.8125 C 30.070312 -18.375 29.238281 -19.566406 27.84375 -20.390625 C 26.457031 -21.222656 24.820312 -21.640625 22.9375 -21.640625 C 20.75 -21.640625 18.941406 -21.101562 17.515625 -20.03125 C 16.097656 -18.96875 15.390625 -17.300781 15.390625 -15.03125 C 15.390625 -12.757812 16.101562 -11.078125 17.53125 -9.984375 C 18.96875 -8.890625 20.796875 -8.34375 23.015625 -8.34375 C 24.929688 -8.34375 26.582031 -8.738281 27.96875 -9.53125 C 29.363281 -10.332031 30.171875 -11.546875 30.390625 -13.171875 L 44.25 -13.171875 C 44.050781 -10.253906 43.039062 -7.75 41.21875 -5.65625 C 39.394531 -3.5625 36.914062 -1.945312 33.78125 -0.8125 C 30.65625 0.320312 26.984375 0.890625 22.765625 0.890625 Z M 22.765625 0.890625 "/></g></g><g style="fill:#d8bd2a;fill-opacity:0.4;"><g transform="translate(46.333897, 53.997992)"><path style="stroke:none" d="M 23.171875 0.890625 C 18.472656 0.890625 14.46875 0.285156 11.15625 -0.921875 C 7.851562 -2.140625 5.328125 -3.925781 3.578125 -6.28125 C 1.835938 -8.632812 0.96875 -11.507812 0.96875 -14.90625 L 0.96875 -15.109375 C 0.96875 -18.515625 1.835938 -21.390625 3.578125 -23.734375 C 5.328125 -26.085938 7.863281 -27.863281 11.1875 -29.0625 C 14.507812 -30.269531 18.519531 -30.875 23.21875 -30.875 C 27.914062 -30.875 31.914062 -30.269531 35.21875 -29.0625 C 38.53125 -27.863281 41.054688 -26.085938 42.796875 -23.734375 C 44.546875 -21.390625 45.421875 -18.515625 45.421875 -15.109375 L 45.421875 -14.90625 C 45.421875 -11.507812 44.546875 -8.632812 42.796875 -6.28125 C 41.054688 -3.925781 38.53125 -2.140625 35.21875 -0.921875 C 31.914062 0.285156 27.898438 0.890625 23.171875 0.890625 Z M 15.390625 -14.90625 C 15.390625 -12.800781 16.097656 -11.191406 17.515625 -10.078125 C 18.941406 -8.972656 20.828125 -8.421875 23.171875 -8.421875 C 25.523438 -8.421875 27.410156 -8.988281 28.828125 -10.125 C 30.242188 -11.257812 30.953125 -12.851562 30.953125 -14.90625 L 30.953125 -15.109375 C 30.953125 -17.160156 30.242188 -18.742188 28.828125 -19.859375 C 27.410156 -20.984375 25.523438 -21.546875 23.171875 -21.546875 C 20.828125 -21.546875 18.941406 -21 17.515625 -19.90625 C 16.097656 -18.8125 15.390625 -17.210938 15.390625 -15.109375 Z M 15.390625 -14.90625 "/></g></g><g style="fill:#d8bd2a;fill-opacity:0.4;"><g transform="translate(89.075781, 53.997992)"><path style="stroke:none" d="M 0.25 0 L 13.171875 -30.109375 L 33.5 -30.109375 L 46.71875 0 L 31.40625 0 L 29.734375 -4.90625 L 17.171875 -4.90625 L 15.515625 0 Z M 19.6875 -12.28125 L 27.21875 -12.28125 L 23.828125 -22.328125 L 23.546875 -23.421875 L 23.375 -23.421875 L 23.09375 -22.328125 Z M 19.6875 -12.28125 "/></g></g><g style="fill:#d8bd2a;fill-opacity:0.4;"><g transform="translate(132.425386, 53.997992)"><path style="stroke:none" d="M 22.765625 0.890625 C 18.285156 0.890625 14.410156 0.285156 11.140625 -0.921875 C 7.867188 -2.140625 5.351562 -3.9375 3.59375 -6.3125 C 1.84375 -8.695312 0.96875 -11.601562 0.96875 -15.03125 C 0.96875 -18.457031 1.84375 -21.34375 3.59375 -23.6875 C 5.351562 -26.039062 7.867188 -27.828125 11.140625 -29.046875 C 14.410156 -30.265625 18.285156 -30.875 22.765625 -30.875 C 27.003906 -30.875 30.703125 -30.316406 33.859375 -29.203125 C 37.023438 -28.097656 39.503906 -26.5 41.296875 -24.40625 C 43.097656 -22.3125 44.082031 -19.78125 44.25 -16.8125 L 30.34375 -16.8125 C 30.070312 -18.375 29.238281 -19.566406 27.84375 -20.390625 C 26.457031 -21.222656 24.820312 -21.640625 22.9375 -21.640625 C 20.75 -21.640625 18.941406 -21.101562 17.515625 -20.03125 C 16.097656 -18.96875 15.390625 -17.300781 15.390625 -15.03125 C 15.390625 -12.757812 16.101562 -11.078125 17.53125 -9.984375 C 18.96875 -8.890625 20.796875 -8.34375 23.015625 -8.34375 C 24.929688 -8.34375 26.582031 -8.738281 27.96875 -9.53125 C 29.363281 -10.332031 30.171875 -11.546875 30.390625 -13.171875 L 44.25 -13.171875 C 44.050781 -10.253906 43.039062 -7.75 41.21875 -5.65625 C 39.394531 -3.5625 36.914062 -1.945312 33.78125 -0.8125 C 30.65625 0.320312 26.984375 0.890625 22.765625 0.890625 Z M 22.765625 0.890625 "/></g></g><g style="fill:#d8bd2a;fill-opacity:0.4;"><g transform="translate(174.032855, 53.997992)"><path style="stroke:none" d="M 29.859375 0 L 29.859375 -11.296875 L 17.171875 -11.296875 L 17.171875 0 L 2.921875 0 L 2.921875 -30.109375 L 17.171875 -30.109375 L 17.171875 -19.8125 L 29.859375 -19.8125 L 29.859375 -30.109375 L 44.078125 -30.109375 L 44.078125 0 Z M 29.859375 0 "/></g></g><g style="fill:#d8bd2a;fill-opacity:1;"><g transform="translate(2.935393, 52.206957)"><path style="stroke:none" d="M 22.765625 0.890625 C 18.285156 0.890625 14.410156 0.285156 11.140625 -0.921875 C 7.867188 -2.140625 5.351562 -3.9375 3.59375 -6.3125 C 1.84375 -8.695312 0.96875 -11.601562 0.96875 -15.03125 C 0.96875 -18.457031 1.84375 -21.34375 3.59375 -23.6875 C 5.351562 -26.039062 7.867188 -27.828125 11.140625 -29.046875 C 14.410156 -30.265625 18.285156 -30.875 22.765625 -30.875 C 27.003906 -30.875 30.703125 -30.316406 33.859375 -29.203125 C 37.023438 -28.097656 39.503906 -26.5 41.296875 -24.40625 C 43.097656 -22.3125 44.082031 -19.78125 44.25 -16.8125 L 30.34375 -16.8125 C 30.070312 -18.375 29.238281 -19.566406 27.84375 -20.390625 C 26.457031 -21.222656 24.820312 -21.640625 22.9375 -21.640625 C 20.75 -21.640625 18.941406 -21.101562 17.515625 -20.03125 C 16.097656 -18.96875 15.390625 -17.300781 15.390625 -15.03125 C 15.390625 -12.757812 16.101562 -11.078125 17.53125 -9.984375 C 18.96875 -8.890625 20.796875 -8.34375 23.015625 -8.34375 C 24.929688 -8.34375 26.582031 -8.738281 27.96875 -9.53125 C 29.363281 -10.332031 30.171875 -11.546875 30.390625 -13.171875 L 44.25 -13.171875 C 44.050781 -10.253906 43.039062 -7.75 41.21875 -5.65625 C 39.394531 -3.5625 36.914062 -1.945312 33.78125 -0.8125 C 30.65625 0.320312 26.984375 0.890625 22.765625 0.890625 Z M 22.765625 0.890625 "/></g></g><g style="fill:#d8bd2a;fill-opacity:1;"><g transform="translate(44.542862, 52.206957)"><path style="stroke:none" d="M 23.171875 0.890625 C 18.472656 0.890625 14.46875 0.285156 11.15625 -0.921875 C 7.851562 -2.140625 5.328125 -3.925781 3.578125 -6.28125 C 1.835938 -8.632812 0.96875 -11.507812 0.96875 -14.90625 L 0.96875 -15.109375 C 0.96875 -18.515625 1.835938 -21.390625 3.578125 -23.734375 C 5.328125 -26.085938 7.863281 -27.863281 11.1875 -29.0625 C 14.507812 -30.269531 18.519531 -30.875 23.21875 -30.875 C 27.914062 -30.875 31.914062 -30.269531 35.21875 -29.0625 C 38.53125 -27.863281 41.054688 -26.085938 42.796875 -23.734375 C 44.546875 -21.390625 45.421875 -18.515625 45.421875 -15.109375 L 45.421875 -14.90625 C 45.421875 -11.507812 44.546875 -8.632812 42.796875 -6.28125 C 41.054688 -3.925781 38.53125 -2.140625 35.21875 -0.921875 C 31.914062 0.285156 27.898438 0.890625 23.171875 0.890625 Z M 15.390625 -14.90625 C 15.390625 -12.800781 16.097656 -11.191406 17.515625 -10.078125 C 18.941406 -8.972656 20.828125 -8.421875 23.171875 -8.421875 C 25.523438 -8.421875 27.410156 -8.988281 28.828125 -10.125 C 30.242188 -11.257812 30.953125 -12.851562 30.953125 -14.90625 L 30.953125 -15.109375 C 30.953125 -17.160156 30.242188 -18.742188 28.828125 -19.859375 C 27.410156 -20.984375 25.523438 -21.546875 23.171875 -21.546875 C 20.828125 -21.546875 18.941406 -21 17.515625 -19.90625 C 16.097656 -18.8125 15.390625 -17.210938 15.390625 -15.109375 Z M 15.390625 -14.90625 "/></g></g><g style="fill:#d8bd2a;fill-opacity:1;"><g transform="translate(87.284746, 52.206957)"><path style="stroke:none" d="M 0.25 0 L 13.171875 -30.109375 L 33.5 -30.109375 L 46.71875 0 L 31.40625 0 L 29.734375 -4.90625 L 17.171875 -4.90625 L 15.515625 0 Z M 19.6875 -12.28125 L 27.21875 -12.28125 L 23.828125 -22.328125 L 23.546875 -23.421875 L 23.375 -23.421875 L 23.09375 -22.328125 Z M 19.6875 -12.28125 "/></g></g><g style="fill:#d8bd2a;fill-opacity:1;"><g transform="translate(130.634351, 52.206957)"><path style="stroke:none" d="M 22.765625 0.890625 C 18.285156 0.890625 14.410156 0.285156 11.140625 -0.921875 C 7.867188 -2.140625 5.351562 -3.9375 3.59375 -6.3125 C 1.84375 -8.695312 0.96875 -11.601562 0.96875 -15.03125 C 0.96875 -18.457031 1.84375 -21.34375 3.59375 -23.6875 C 5.351562 -26.039062 7.867188 -27.828125 11.140625 -29.046875 C 14.410156 -30.265625 18.285156 -30.875 22.765625 -30.875 C 27.003906 -30.875 30.703125 -30.316406 33.859375 -29.203125 C 37.023438 -28.097656 39.503906 -26.5 41.296875 -24.40625 C 43.097656 -22.3125 44.082031 -19.78125 44.25 -16.8125 L 30.34375 -16.8125 C 30.070312 -18.375 29.238281 -19.566406 27.84375 -20.390625 C 26.457031 -21.222656 24.820312 -21.640625 22.9375 -21.640625 C 20.75 -21.640625 18.941406 -21.101562 17.515625 -20.03125 C 16.097656 -18.96875 15.390625 -17.300781 15.390625 -15.03125 C 15.390625 -12.757812 16.101562 -11.078125 17.53125 -9.984375 C 18.96875 -8.890625 20.796875 -8.34375 23.015625 -8.34375 C 24.929688 -8.34375 26.582031 -8.738281 27.96875 -9.53125 C 29.363281 -10.332031 30.171875 -11.546875 30.390625 -13.171875 L 44.25 -13.171875 C 44.050781 -10.253906 43.039062 -7.75 41.21875 -5.65625 C 39.394531 -3.5625 36.914062 -1.945312 33.78125 -0.8125 C 30.65625 0.320312 26.984375 0.890625 22.765625 0.890625 Z M 22.765625 0.890625 "/></g></g><g style="fill:#d8bd2a;fill-opacity:1;"><g transform="translate(172.24182, 52.206957)"><path style="stroke:none" d="M 29.859375 0 L 29.859375 -11.296875 L 17.171875 -11.296875 L 17.171875 0 L 2.921875 0 L 2.921875 -30.109375 L 17.171875 -30.109375 L 17.171875 -19.8125 L 29.859375 -19.8125 L 29.859375 -30.109375 L 44.078125 -30.109375 L 44.078125 0 Z M 29.859375 0 "/></g></g><g style="fill:#d8bd2a;fill-opacity:0.4;"><g transform="translate(217.425056, 53.997992)"><path style="stroke:none" d=""/></g></g><g style="fill:#97cfca;fill-opacity:1;"><g transform="translate(215.634021, 52.206957)"><path style="stroke:none" d=""/></g></g><g style="fill:#d8bd2a;fill-opacity:0.4;"><g transform="translate(232.94574, 53.997992)"><path style="stroke:none" d="M 9.5625 0 L 0.25 -30.109375 L 14.21875 -30.109375 L 19.078125 -9.921875 L 19.28125 -9 L 19.328125 -9 L 25 -30.109375 L 37.109375 -30.109375 L 42.546875 -10.046875 L 42.78125 -9.03125 L 42.859375 -9.03125 L 43.0625 -9.921875 L 47.890625 -30.109375 L 61.875 -30.109375 L 52.59375 0 L 36.140625 0 L 31.28125 -18.640625 L 31.109375 -19.328125 L 31.03125 -19.328125 L 30.875 -18.640625 L 26.015625 0 Z M 9.5625 0 "/></g></g><g style="fill:#d8bd2a;fill-opacity:0.4;"><g transform="translate(291.447814, 53.997992)"><path style="stroke:none" d="M 2.921875 0 L 2.921875 -30.109375 L 17.171875 -30.109375 L 17.171875 0 Z M 2.921875 0 "/></g></g><g style="fill:#d8bd2a;fill-opacity:0.4;"><g transform="translate(307.895698, 53.997992)"><path style="stroke:none" d="M 2.921875 0 L 2.921875 -30.109375 L 17.171875 -30.109375 L 17.171875 -8.546875 L 33.75 -8.546875 L 33.75 0 Z M 2.921875 0 "/></g></g><g style="fill:#d8bd2a;fill-opacity:0.4;"><g transform="translate(339.050391, 53.997992)"><path style="stroke:none" d="M 2.921875 0 L 2.921875 -30.109375 L 17.171875 -30.109375 L 17.171875 -8.546875 L 33.75 -8.546875 L 33.75 0 Z M 2.921875 0 "/></g></g><g style="fill:#0f0276;fill-opacity:1;"><g transform="translate(231.154705, 52.206957)"><path style="stroke:none" d="M 9.5625 0 L 0.25 -30.109375 L 14.21875 -30.109375 L 19.078125 -9.921875 L 19.28125 -9 L 19.328125 -9 L 25 -30.109375 L 37.109375 -30.109375 L 42.546875 -10.046875 L 42.78125 -9.03125 L 42.859375 -9.03125 L 43.0625 -9.921875 L 47.890625 -30.109375 L 61.875 -30.109375 L 52.59375 0 L 36.140625 0 L 31.28125 -18.640625 L 31.109375 -19.328125 L 31.03125 -19.328125 L 30.875 -18.640625 L 26.015625 0 Z M 9.5625 0 "/></g></g><g style="fill:#0f0276;fill-opacity:1;"><g transform="translate(289.656779, 52.206957)"><path style="stroke:none" d="M 2.921875 0 L 2.921875 -30.109375 L 17.171875 -30.109375 L 17.171875 0 Z M 2.921875 0 "/></g></g><g style="fill:#0f0276;fill-opacity:1;"><g transform="translate(306.104664, 52.206957)"><path style="stroke:none" d="M 2.921875 0 L 2.921875 -30.109375 L 17.171875 -30.109375 L 17.171875 -8.546875 L 33.75 -8.546875 L 33.75 0 Z M 2.921875 0 "/></g></g><g style="fill:#0f0276;fill-opacity:1;"><g transform="translate(337.259356, 52.206957)"><path style="stroke:none" d="M 2.921875 0 L 2.921875 -30.109375 L 17.171875 -30.109375 L 17.171875 -8.546875 L 33.75 -8.546875 L 33.75 0 Z M 2.921875 0 "/></g></g><g style="fill:#0f0276;fill-opacity:0.4;"><g transform="translate(7.710072, 103.913622)"><path style="stroke:none" d="M 15.484375 0 L 15.484375 -28.625 L 0.4375 -28.625 L 0.4375 -40.21875 L 49.46875 -40.21875 L 49.46875 -28.625 L 34.484375 -28.625 L 34.484375 0 Z M 15.484375 0 "/></g></g><g style="fill:#0f0276;fill-opacity:0.4;"><g transform="translate(52.741036, 103.913622)"><path style="stroke:none" d="M 30.203125 1.1875 C 24.972656 1.1875 20.609375 0.753906 17.109375 -0.109375 C 13.609375 -0.972656 10.816406 -2.269531 8.734375 -4 C 6.660156 -5.738281 5.171875 -7.882812 4.265625 -10.4375 C 3.367188 -13 2.921875 -15.976562 2.921875 -19.375 L 2.921875 -40.21875 L 21.921875 -40.21875 L 21.921875 -18.9375 C 21.921875 -13.820312 24.679688 -11.265625 30.203125 -11.265625 C 32.984375 -11.265625 35.046875 -11.910156 36.390625 -13.203125 C 37.742188 -14.503906 38.421875 -16.378906 38.421875 -18.828125 L 38.421875 -40.21875 L 57.484375 -40.21875 L 57.484375 -19.21875 C 57.484375 -15.925781 57.050781 -13.019531 56.1875 -10.5 C 55.320312 -7.976562 53.867188 -5.847656 51.828125 -4.109375 C 49.785156 -2.378906 46.992188 -1.0625 43.453125 -0.15625 C 39.921875 0.738281 35.503906 1.1875 30.203125 1.1875 Z M 30.203125 1.1875 "/></g></g><g style="fill:#0f0276;fill-opacity:0.4;"><g transform="translate(108.272127, 103.913622)"><path style="stroke:none" d="M 3.890625 0 L 3.890625 -40.21875 L 24.1875 -40.21875 L 36.53125 -19.8125 L 36.96875 -18.890625 L 37.015625 -18.890625 L 37.453125 -19.8125 L 49.734375 -40.21875 L 70.09375 -40.21875 L 70.09375 0 L 53.75 0 L 53.75 -21.96875 L 53.796875 -22.890625 L 53.46875 -22.140625 L 43.25 -5.25 L 30.75 -5.25 L 20.515625 -22.140625 L 20.1875 -22.890625 L 20.25 -21.96875 L 20.25 0 Z M 3.890625 0 "/></g></g><g style="fill:#0f0276;fill-opacity:0.4;"><g transform="translate(177.388424, 103.913622)"><path style="stroke:none" d="M 3.890625 0 L 3.890625 -40.21875 L 37.890625 -40.21875 C 41.390625 -40.21875 44.445312 -39.925781 47.0625 -39.34375 C 49.675781 -38.769531 51.703125 -37.796875 53.140625 -36.421875 C 54.585938 -35.054688 55.3125 -33.179688 55.3125 -30.796875 C 55.3125 -28.304688 54.488281 -26.25 52.84375 -24.625 C 51.207031 -23 48.625 -21.972656 45.09375 -21.546875 L 45.09375 -21.4375 C 48.84375 -21 51.804688 -19.894531 53.984375 -18.125 C 56.171875 -16.363281 57.265625 -14.054688 57.265625 -11.203125 C 57.265625 -8.929688 56.734375 -7.0625 55.671875 -5.59375 C 54.609375 -4.132812 53.164062 -3 51.34375 -2.1875 C 49.519531 -1.375 47.441406 -0.804688 45.109375 -0.484375 C 42.785156 -0.160156 40.359375 0 37.828125 0 Z M 22.46875 -10.546875 L 33.78125 -10.546875 C 35.394531 -10.546875 36.597656 -10.789062 37.390625 -11.28125 C 38.191406 -11.769531 38.59375 -12.59375 38.59375 -13.75 C 38.59375 -15.769531 36.859375 -16.78125 33.390625 -16.78125 L 22.46875 -16.78125 Z M 22.46875 -24.140625 L 33.609375 -24.140625 C 36.609375 -24.140625 38.109375 -25.023438 38.109375 -26.796875 C 38.109375 -28.703125 36.734375 -29.65625 33.984375 -29.65625 L 22.46875 -29.65625 Z M 22.46875 -24.140625 "/></g></g><g style="fill:#0f0276;fill-opacity:0.4;"><g transform="translate(231.241659, 103.913622)"><path style="stroke:none" d="M 3.890625 0 L 3.890625 -40.21875 L 22.953125 -40.21875 L 22.953125 -11.421875 L 45.09375 -11.421875 L 45.09375 0 Z M 3.890625 0 "/></g></g><g style="fill:#0f0276;fill-opacity:0.4;"><g transform="translate(272.862784, 103.913622)"><path style="stroke:none" d="M 3.890625 0 L 3.890625 -40.21875 L 48.875 -40.21875 L 48.875 -29.171875 L 22.953125 -29.171875 L 22.953125 -24.796875 L 46.546875 -24.796875 L 46.546875 -16.125 L 22.953125 -16.125 L 22.953125 -11.046875 L 49.46875 -11.046875 L 49.46875 0 Z M 3.890625 0 "/></g></g><g style="fill:#0f0276;fill-opacity:0.4;"><g transform="translate(319.138607, 103.913622)"><path style="stroke:none" d="M 26.625 1.1875 C 20.75 1.1875 15.96875 0.503906 12.28125 -0.859375 C 8.601562 -2.234375 5.894531 -4.066406 4.15625 -6.359375 C 2.425781 -8.648438 1.53125 -11.128906 1.46875 -13.796875 L 18.890625 -13.796875 C 18.992188 -12.285156 19.613281 -11.140625 20.75 -10.359375 C 21.894531 -9.585938 23.910156 -9.203125 26.796875 -9.203125 C 29.242188 -9.203125 30.953125 -9.460938 31.921875 -9.984375 C 32.898438 -10.503906 33.390625 -11.179688 33.390625 -12.015625 C 33.390625 -12.554688 33.207031 -13.003906 32.84375 -13.359375 C 32.488281 -13.722656 31.707031 -14.050781 30.5 -14.34375 C 29.289062 -14.632812 27.390625 -14.90625 24.796875 -15.15625 C 20.023438 -15.550781 16.175781 -16.132812 13.25 -16.90625 C 10.332031 -17.6875 8.109375 -18.644531 6.578125 -19.78125 C 5.046875 -20.914062 4.007812 -22.210938 3.46875 -23.671875 C 2.925781 -25.140625 2.65625 -26.722656 2.65625 -28.421875 C 2.65625 -30.035156 3.03125 -31.597656 3.78125 -33.109375 C 4.539062 -34.628906 5.804688 -36.003906 7.578125 -37.234375 C 9.347656 -38.460938 11.726562 -39.4375 14.71875 -40.15625 C 17.71875 -40.882812 21.472656 -41.25 25.984375 -41.25 C 30.304688 -41.25 33.972656 -40.867188 36.984375 -40.109375 C 40.003906 -39.347656 42.460938 -38.289062 44.359375 -36.9375 C 46.253906 -35.582031 47.660156 -34.007812 48.578125 -32.21875 C 49.492188 -30.4375 50.023438 -28.519531 50.171875 -26.46875 L 33.390625 -26.46875 C 33.285156 -27.257812 33.015625 -27.988281 32.578125 -28.65625 C 32.148438 -29.320312 31.445312 -29.867188 30.46875 -30.296875 C 29.5 -30.734375 28.128906 -30.953125 26.359375 -30.953125 C 24.160156 -30.953125 22.625 -30.707031 21.75 -30.21875 C 20.882812 -29.738281 20.453125 -29.140625 20.453125 -28.421875 C 20.453125 -28.015625 20.5625 -27.625 20.78125 -27.25 C 21 -26.875 21.550781 -26.53125 22.4375 -26.21875 C 23.320312 -25.914062 24.738281 -25.675781 26.6875 -25.5 C 31.082031 -25.132812 34.757812 -24.65625 37.71875 -24.0625 C 40.675781 -23.46875 43.066406 -22.765625 44.890625 -21.953125 C 46.710938 -21.140625 48.09375 -20.234375 49.03125 -19.234375 C 49.96875 -18.242188 50.597656 -17.1875 50.921875 -16.0625 C 51.253906 -14.945312 51.421875 -13.78125 51.421875 -12.5625 C 51.421875 -3.394531 43.15625 1.1875 26.625 1.1875 Z M 26.625 1.1875 "/></g></g><g style="fill:#e10b0b;fill-opacity:1;"><g transform="translate(5.31784, 101.521388)"><path style="stroke:none" d="M 15.484375 0 L 15.484375 -28.625 L 0.4375 -28.625 L 0.4375 -40.21875 L 49.46875 -40.21875 L 49.46875 -28.625 L 34.484375 -28.625 L 34.484375 0 Z M 15.484375 0 "/></g></g><g style="fill:#e10b0b;fill-opacity:1;"><g transform="translate(50.348804, 101.521388)"><path style="stroke:none" d="M 30.203125 1.1875 C 24.972656 1.1875 20.609375 0.753906 17.109375 -0.109375 C 13.609375 -0.972656 10.816406 -2.269531 8.734375 -4 C 6.660156 -5.738281 5.171875 -7.882812 4.265625 -10.4375 C 3.367188 -13 2.921875 -15.976562 2.921875 -19.375 L 2.921875 -40.21875 L 21.921875 -40.21875 L 21.921875 -18.9375 C 21.921875 -13.820312 24.679688 -11.265625 30.203125 -11.265625 C 32.984375 -11.265625 35.046875 -11.910156 36.390625 -13.203125 C 37.742188 -14.503906 38.421875 -16.378906 38.421875 -18.828125 L 38.421875 -40.21875 L 57.484375 -40.21875 L 57.484375 -19.21875 C 57.484375 -15.925781 57.050781 -13.019531 56.1875 -10.5 C 55.320312 -7.976562 53.867188 -5.847656 51.828125 -4.109375 C 49.785156 -2.378906 46.992188 -1.0625 43.453125 -0.15625 C 39.921875 0.738281 35.503906 1.1875 30.203125 1.1875 Z M 30.203125 1.1875 "/></g></g><g style="fill:#e10b0b;fill-opacity:1;"><g transform="translate(105.879895, 101.521388)"><path style="stroke:none" d="M 3.890625 0 L 3.890625 -40.21875 L 24.1875 -40.21875 L 36.53125 -19.8125 L 36.96875 -18.890625 L 37.015625 -18.890625 L 37.453125 -19.8125 L 49.734375 -40.21875 L 70.09375 -40.21875 L 70.09375 0 L 53.75 0 L 53.75 -21.96875 L 53.796875 -22.890625 L 53.46875 -22.140625 L 43.25 -5.25 L 30.75 -5.25 L 20.515625 -22.140625 L 20.1875 -22.890625 L 20.25 -21.96875 L 20.25 0 Z M 3.890625 0 "/></g></g><g style="fill:#e10b0b;fill-opacity:1;"><g transform="translate(174.996192, 101.521388)"><path style="stroke:none" d="M 3.890625 0 L 3.890625 -40.21875 L 37.890625 -40.21875 C 41.390625 -40.21875 44.445312 -39.925781 47.0625 -39.34375 C 49.675781 -38.769531 51.703125 -37.796875 53.140625 -36.421875 C 54.585938 -35.054688 55.3125 -33.179688 55.3125 -30.796875 C 55.3125 -28.304688 54.488281 -26.25 52.84375 -24.625 C 51.207031 -23 48.625 -21.972656 45.09375 -21.546875 L 45.09375 -21.4375 C 48.84375 -21 51.804688 -19.894531 53.984375 -18.125 C 56.171875 -16.363281 57.265625 -14.054688 57.265625 -11.203125 C 57.265625 -8.929688 56.734375 -7.0625 55.671875 -5.59375 C 54.609375 -4.132812 53.164062 -3 51.34375 -2.1875 C 49.519531 -1.375 47.441406 -0.804688 45.109375 -0.484375 C 42.785156 -0.160156 40.359375 0 37.828125 0 Z M 22.46875 -10.546875 L 33.78125 -10.546875 C 35.394531 -10.546875 36.597656 -10.789062 37.390625 -11.28125 C 38.191406 -11.769531 38.59375 -12.59375 38.59375 -13.75 C 38.59375 -15.769531 36.859375 -16.78125 33.390625 -16.78125 L 22.46875 -16.78125 Z M 22.46875 -24.140625 L 33.609375 -24.140625 C 36.609375 -24.140625 38.109375 -25.023438 38.109375 -26.796875 C 38.109375 -28.703125 36.734375 -29.65625 33.984375 -29.65625 L 22.46875 -29.65625 Z M 22.46875 -24.140625 "/></g></g><g style="fill:#e10b0b;fill-opacity:1;"><g transform="translate(228.849427, 101.521388)"><path style="stroke:none" d="M 3.890625 0 L 3.890625 -40.21875 L 22.953125 -40.21875 L 22.953125 -11.421875 L 45.09375 -11.421875 L 45.09375 0 Z M 3.890625 0 "/></g></g><g style="fill:#e10b0b;fill-opacity:1;"><g transform="translate(270.470552, 101.521388)"><path style="stroke:none" d="M 3.890625 0 L 3.890625 -40.21875 L 48.875 -40.21875 L 48.875 -29.171875 L 22.953125 -29.171875 L 22.953125 -24.796875 L 46.546875 -24.796875 L 46.546875 -16.125 L 22.953125 -16.125 L 22.953125 -11.046875 L 49.46875 -11.046875 L 49.46875 0 Z M 3.890625 0 "/></g></g><g style="fill:#e10b0b;fill-opacity:1;"><g transform="translate(316.746375, 101.521388)"><path style="stroke:none" d="M 26.625 1.1875 C 20.75 1.1875 15.96875 0.503906 12.28125 -0.859375 C 8.601562 -2.234375 5.894531 -4.066406 4.15625 -6.359375 C 2.425781 -8.648438 1.53125 -11.128906 1.46875 -13.796875 L 18.890625 -13.796875 C 18.992188 -12.285156 19.613281 -11.140625 20.75 -10.359375 C 21.894531 -9.585938 23.910156 -9.203125 26.796875 -9.203125 C 29.242188 -9.203125 30.953125 -9.460938 31.921875 -9.984375 C 32.898438 -10.503906 33.390625 -11.179688 33.390625 -12.015625 C 33.390625 -12.554688 33.207031 -13.003906 32.84375 -13.359375 C 32.488281 -13.722656 31.707031 -14.050781 30.5 -14.34375 C 29.289062 -14.632812 27.390625 -14.90625 24.796875 -15.15625 C 20.023438 -15.550781 16.175781 -16.132812 13.25 -16.90625 C 10.332031 -17.6875 8.109375 -18.644531 6.578125 -19.78125 C 5.046875 -20.914062 4.007812 -22.210938 3.46875 -23.671875 C 2.925781 -25.140625 2.65625 -26.722656 2.65625 -28.421875 C 2.65625 -30.035156 3.03125 -31.597656 3.78125 -33.109375 C 4.539062 -34.628906 5.804688 -36.003906 7.578125 -37.234375 C 9.347656 -38.460938 11.726562 -39.4375 14.71875 -40.15625 C 17.71875 -40.882812 21.472656 -41.25 25.984375 -41.25 C 30.304688 -41.25 33.972656 -40.867188 36.984375 -40.109375 C 40.003906 -39.347656 42.460938 -38.289062 44.359375 -36.9375 C 46.253906 -35.582031 47.660156 -34.007812 48.578125 -32.21875 C 49.492188 -30.4375 50.023438 -28.519531 50.171875 -26.46875 L 33.390625 -26.46875 C 33.285156 -27.257812 33.015625 -27.988281 32.578125 -28.65625 C 32.148438 -29.320312 31.445312 -29.867188 30.46875 -30.296875 C 29.5 -30.734375 28.128906 -30.953125 26.359375 -30.953125 C 24.160156 -30.953125 22.625 -30.707031 21.75 -30.21875 C 20.882812 -29.738281 20.453125 -29.140625 20.453125 -28.421875 C 20.453125 -28.015625 20.5625 -27.625 20.78125 -27.25 C 21 -26.875 21.550781 -26.53125 22.4375 -26.21875 C 23.320312 -25.914062 24.738281 -25.675781 26.6875 -25.5 C 31.082031 -25.132812 34.757812 -24.65625 37.71875 -24.0625 C 40.675781 -23.46875 43.066406 -22.765625 44.890625 -21.953125 C 46.710938 -21.140625 48.09375 -20.234375 49.03125 -19.234375 C 49.96875 -18.242188 50.597656 -17.1875 50.921875 -16.0625 C 51.253906 -14.945312 51.421875 -13.78125 51.421875 -12.5625 C 51.421875 -3.394531 43.15625 1.1875 26.625 1.1875 Z M 26.625 1.1875 "/></g></g></g></svg>